<?xml version="1.0" encoding="UTF-8"?> <svg xmlns="http://www.w3.org/2000/svg" width="266" height="95" viewBox="0 0 266 95" fill="none"><path d="M124.333 74.3165H112.546V23.3111H124.333V51.9155L136.257 35.8557H152.11L135.637 55.4996L152.11 74.3165H136.464L124.333 58.9459V74.3165Z" fill="#4522A9"></path><path d="M168.33 31.5133C166.997 32.8459 165.366 33.5122 163.436 33.5122C161.506 33.5122 159.875 32.8459 158.542 31.5133C157.21 30.1807 156.543 28.5495 156.543 26.6196C156.543 24.6437 157.21 22.9895 158.542 21.6569C159.875 20.3243 161.506 19.658 163.436 19.658C165.366 19.658 166.997 20.3243 168.33 21.6569C169.662 22.9895 170.329 24.6437 170.329 26.6196C170.329 28.5495 169.662 30.1807 168.33 31.5133ZM157.577 74.3165V35.8557H169.364V74.3165H157.577Z" fill="#4522A9"></path><path d="M205.777 62.1855C207.477 60.5312 208.327 58.1878 208.327 55.155C208.327 52.1222 207.477 49.7788 205.777 48.1245C204.076 46.4703 202.124 45.6432 199.918 45.6432C197.712 45.6432 195.759 46.4703 194.059 48.1245C192.359 49.7328 191.509 52.0533 191.509 55.0861C191.509 58.1188 192.359 60.4623 194.059 62.1165C195.759 63.7708 197.712 64.5979 199.918 64.5979C202.124 64.5979 204.076 63.7937 205.777 62.1855ZM191.509 40.8873C194.128 37.2572 197.873 35.4421 202.744 35.4421C207.661 35.4421 211.819 37.3031 215.219 41.0251C218.62 44.7012 220.32 49.4112 220.32 55.155C220.32 60.8988 218.62 65.6088 215.219 69.2849C211.819 72.9609 207.707 74.799 202.882 74.799C198.057 74.799 194.266 72.7771 191.509 68.7335V74.3165H179.722V23.3111H191.509V40.8873Z" fill="#4522A9"></path><path d="M250.94 62.2544C252.502 60.6002 253.283 58.2107 253.283 55.0861C253.283 51.9614 252.479 49.595 250.871 47.9867C249.263 46.3324 247.356 45.5053 245.15 45.5053C242.944 45.5053 241.038 46.3324 239.429 47.9867C237.867 49.595 237.086 51.9614 237.086 55.0861C237.086 58.2107 237.89 60.6002 239.498 62.2544C241.152 63.9086 243.082 64.7357 245.288 64.7357C247.494 64.7357 249.378 63.9086 250.94 62.2544ZM230.882 69.3538C227.023 65.7237 225.093 60.9448 225.093 55.0171C225.093 49.0895 227.023 44.3566 230.882 40.8184C234.742 37.2342 239.521 35.4421 245.219 35.4421C250.917 35.4421 255.673 37.2342 259.487 40.8184C263.347 44.3566 265.277 49.0895 265.277 55.0171C265.277 60.9448 263.37 65.7237 259.556 69.3538C255.742 72.9839 250.986 74.799 245.288 74.799C239.59 74.799 234.788 72.9839 230.882 69.3538Z" fill="#4522A9"></path><path d="M23.7445 63.1251H69.2388L46.4916 31.5668L23.7445 63.1251Z" fill="#FF8A00"></path><path d="M29.2461 79.4372H47.3457L38.2959 64.6285L29.2461 79.4372Z" fill="#01AB9D"></path><path d="M50.1303 79.4372H72.4067L61.2685 64.6285L50.1303 79.4372Z" fill="#00CCBB"></path><path d="M72.4066 79.4373H87.7217L80.0642 68.6673L72.4066 79.4373Z" fill="#00CCBB"></path><path d="M71.0146 63.2822H93.291L82.1528 47.1272L71.0146 63.2822Z" fill="#FFB800"></path><path d="M0.00850868 63.1673H21.0474L10.5279 46.7362L0.00850868 63.1673Z" fill="#4688F1"></path><path d="M9.7544 79.4374H27.854L18.8042 67.3211L9.7544 79.4374Z" fill="#4688F1"></path><path d="M14.0325 45.8312H33.3462L24.8255 29.3577L14.0325 45.8312Z" fill="#4688F1"></path><path d="M80.7604 45.7811H59.4976L70.3183 29.6261L80.7604 45.7811Z" fill="#FFC804"></path><path d="M48.7381 28.2798H68.23L58.484 14.8173L48.7381 28.2798Z" fill="#FF8A00"></path><path d="M71.0145 28.2798H90.5063L80.7604 14.8173L71.0145 28.2798Z" fill="#FF8A00"></path><path d="M27.8542 28.2798H44.5615L36.2079 14.8173L27.8542 28.2798Z" fill="#9570FF"></path><path d="M19.5001 13.4711H33.4229L27.2571 4.0473L19.5001 13.4711Z" fill="#9570FF"></path><path d="M21.8564 91.5536H37.231L29.8779 82.1644L21.8564 91.5536Z" fill="#01AB9D"></path><path d="M59.8764 13.4711H75.1914L67.3195 4.0473L59.8764 13.4711Z" fill="#FF8A00"></path><path d="M57.4605 91.5536H72.0259L65.0598 81.3819L57.4605 91.5536Z" fill="#00CCBB"></path><path d="M5.57765 28.2798H23.6772L14.6274 14.8173L5.57765 28.2798Z" fill="#9570FF"></path><path d="M37.5999 13.4711H57.0918L47.3459 0.00854492L37.5999 13.4711Z" fill="#9570FF"></path><path d="M37.2308 94.6834H57.4604L47.3456 82.1644L37.2308 94.6834Z" fill="#01AB9D"></path><path d="M0.00838089 45.7811H13.9312L6.96977 35.011L0.00838089 45.7811Z" fill="#4688F1"></path><path d="M94.683 45.7811H80.7603L87.7216 35.011L94.683 45.7811Z" fill="#FFC804"></path></svg> 