<?xml version="1.0" encoding="UTF-8"?> <svg xmlns="http://www.w3.org/2000/svg" width="1440" height="526" viewBox="0 0 1440 526" fill="none"><path d="M28.4344 3.72289C21.1955 4.83019 4.46873 4.23807 4.46873 4.23807C4.46873 4.23807 0.644385 3.52588 9.89459e-06 3.56881L0 522.077C0.569708 522.115 1.14896 522.153 1.73626 522.192L1.96866 522.208C2.78518 522.262 3.62604 522.316 4.48545 522.372C12.4071 522.889 21.9042 523.509 28.4344 524.507C33.3298 525.256 40.8955 524.571 47.1043 524.009C49.1421 523.825 51.0337 523.654 52.6367 523.551C55.1185 523.391 60.5892 523.652 66.803 523.949C72.9113 524.24 79.7377 524.566 85.1489 524.56C86.1156 524.559 87.3557 524.554 88.7504 524.549C96.9912 524.518 110.628 524.468 105.142 525.018C100.235 525.511 108.825 525.345 117.272 525.182H117.278C121.366 525.103 125.42 525.025 127.893 525.022C130.869 525.019 135.09 524.73 136.654 523.772C137.542 523.228 142.974 523.358 146.306 523.438H146.307C146.633 523.446 146.998 523.506 147.332 523.561C147.931 523.659 148.432 523.742 148.432 523.477L155.988 523.469C159.93 523.465 163.38 523.726 166.86 523.989C169.386 524.18 171.929 524.372 174.687 524.465C174.823 524.469 175.004 524.476 175.226 524.484C175.446 524.493 175.706 524.502 176.003 524.514C182.182 524.75 204.028 525.584 203.204 524.181C202.818 523.525 212.024 524.002 217.171 524.269H217.173C218.728 524.35 219.913 524.411 220.35 524.416C221.218 524.426 222.099 524.438 222.99 524.45C228.877 524.529 235.189 524.614 240.824 524.282C244.873 524.043 249.213 524.047 253.597 524.051C257.515 524.055 261.467 524.058 265.277 523.889C266.99 523.813 268.784 523.827 270.552 523.842H270.565C271.302 523.848 272.033 523.854 272.752 523.853C274.621 523.851 281.339 523.004 281.142 522.852C284.23 522.892 292.194 523.003 295.415 523.321C298.17 523.593 300.947 523.81 303.721 524.026L303.728 524.027C306.444 524.239 309.157 524.451 311.844 524.714C315.346 525.057 319.69 524.966 323.747 524.88L323.764 524.88C325.447 524.845 327.08 524.811 328.583 524.809C329.072 524.808 329.569 524.812 330.069 524.815L330.109 524.815C332.428 524.829 334.817 524.844 336.948 524.518C338.963 524.209 338.764 523.906 338.615 523.678C338.486 523.482 338.395 523.342 339.778 523.302L339.903 523.298L339.905 523.298H339.906C353.589 522.904 371 522.401 384.309 523.706C385.171 523.79 386.713 523.79 388.291 523.79C389.609 523.79 390.952 523.79 391.948 523.839C395.392 524.008 398.755 524.382 402.131 524.757L402.134 524.757C405.157 525.093 408.192 525.431 411.306 525.624C415.203 525.865 417.777 525.549 420.433 525.223L420.436 525.223C422.407 524.981 424.423 524.733 427.059 524.704C430.642 524.665 433.087 524.468 436.394 523.961C440.629 523.312 446.457 523.756 451.907 524.172L451.91 524.172C454.799 524.392 457.582 524.604 459.965 524.641C467.432 524.757 474.942 524.716 482.441 524.675L482.503 524.675C485.909 524.657 489.313 524.638 492.709 524.635C507.728 524.619 520.987 524.326 535.106 523.179C541.497 522.66 548.046 523.081 554.525 523.499C558.833 523.776 563.112 524.052 567.292 524.047L596.542 524.016C604.242 524.008 611.52 524.507 618.806 525.006C626.108 525.507 633.42 526.008 641.172 526C646.286 525.994 651.063 525.452 655.861 524.907C656.349 524.852 656.838 524.796 657.327 524.742C664.258 523.963 671.331 524.124 678.562 524.288H678.567C681.693 524.359 684.849 524.43 688.037 524.427C696.937 524.417 703.79 524.109 711.168 522.174C713.363 521.598 717.169 521.703 720.404 521.792C721.509 521.823 722.548 521.852 723.433 521.851C731.584 521.842 739.158 521.943 747.164 522.305C750.332 522.448 753.642 522.547 756.98 522.647C762.878 522.823 768.865 523.002 774.315 523.432C775.793 523.549 777.179 523.698 778.53 523.844L778.532 523.844C782.253 524.244 785.708 524.616 790.087 524.206C799.52 523.321 811.388 522.42 821.271 522.79C823.923 522.89 826.346 523.135 828.57 523.36L828.572 523.361C831.328 523.64 833.781 523.888 835.989 523.79C844.827 523.397 859.815 522.948 867.925 524.123C872.495 524.785 875.881 524.464 879.554 524.116C881.253 523.955 883.015 523.788 884.983 523.71C903.56 522.973 923.535 523.51 941.708 524.637C946.554 524.937 952.006 524.835 957.258 524.736H957.26C959.732 524.689 962.16 524.643 964.458 524.641C966.142 524.639 968.284 524.701 970.614 524.768C976.332 524.932 983.186 525.13 987.208 524.504C994.162 523.422 1007.2 523.801 1014.91 524.108C1016.26 524.161 1017.53 524.239 1018.78 524.314L1018.8 524.315L1018.8 524.316C1021.39 524.473 1023.87 524.624 1026.78 524.546C1029.87 524.464 1032.18 523.98 1034.45 523.507C1036.81 523.013 1039.12 522.531 1042.19 522.527C1046.4 522.523 1050.76 522.81 1055.15 523.1L1055.15 523.101C1062.31 523.573 1069.56 524.052 1076.41 523.281C1077.51 523.157 1078.48 522.893 1079.43 522.635L1079.43 522.634C1080.65 522.301 1081.84 521.977 1083.22 521.976L1084.17 521.975C1088.97 521.968 1093.61 521.961 1098.34 522.355C1112.88 523.566 1127.15 523.51 1141.92 523.452C1144.63 523.442 1147.36 523.431 1150.11 523.428C1152.47 523.425 1155.17 523.703 1157.77 523.97C1160.65 524.265 1163.41 524.549 1165.47 524.427C1171.71 524.06 1177.92 523.978 1184.13 523.897C1191.68 523.798 1199.22 523.699 1206.73 523.086C1217.92 522.172 1232.3 521.952 1243.86 522.341C1251.83 522.609 1257.25 522.479 1264.98 521.839C1268.46 521.55 1272.66 521.775 1276.76 521.993C1279.4 522.134 1281.99 522.272 1284.32 522.27L1317.55 522.235C1324.33 522.227 1331.01 522.475 1337.67 522.722L1337.68 522.722C1344.33 522.968 1350.97 523.215 1357.7 523.207C1368.67 523.196 1379.53 523.311 1390.4 523.426H1390.4C1401.29 523.542 1412.18 523.657 1423.2 523.645C1424.09 523.645 1425.17 523.701 1426.33 523.762C1431.6 524.039 1438.76 524.415 1440 520.048V5.94883C1438.89 2.03635 1433.03 2.41101 1428.03 2.73037C1427.45 2.76744 1426.88 2.80376 1426.33 2.83255C1425.17 2.89381 1424.09 2.9502 1423.2 2.94925C1412.18 2.93754 1401.29 3.05308 1390.4 3.16853C1379.53 3.28382 1368.67 1.76348 1357.7 1.75183C1350.97 1.74467 1344.33 1.9908 1337.68 2.23725C1331.01 2.48434 1324.33 2.73176 1317.55 2.72455L1284.32 2.68929C1281.99 2.68681 1279.4 2.82523 1276.76 2.96598C1272.66 3.1845 1268.46 3.40865 1264.98 3.11996C1257.25 2.4802 1251.83 2.34979 1243.86 2.61804C1232.3 3.00686 1217.92 2.78664 1206.73 1.87346C1199.22 1.25979 1191.68 1.16113 1184.13 1.06222C1177.92 0.98095 1171.71 0.899509 1165.47 0.532022C1163.41 0.410431 1160.65 0.693852 1157.77 0.989513C1155.17 1.25662 1152.47 1.53371 1150.11 1.53119C1147.36 1.52827 1144.63 1.51758 1141.92 1.50696C1127.15 1.4491 1112.88 1.39316 1098.34 2.60442C1093.61 2.99797 1088.97 2.99133 1084.17 2.98447L1083.22 2.98322C1081.84 2.98175 1080.65 2.65833 1079.43 2.32537C1078.48 2.06664 1077.51 1.80205 1076.41 1.67845C1069.56 0.907233 1062.31 1.38593 1055.15 1.85864C1050.76 2.14863 1046.4 2.43637 1042.19 2.43189C1039.12 2.42863 1036.81 1.94636 1034.45 1.45259C1032.18 0.979337 1029.87 0.495519 1026.78 0.412787C1023.87 0.334879 1021.39 0.486059 1018.8 0.643702C1017.55 0.719823 1016.27 0.797451 1014.91 0.851522C1007.2 1.15808 994.162 1.53762 987.208 0.455385C983.186 -0.170412 976.332 0.0269102 970.614 0.191485C968.284 0.258581 966.142 0.320235 964.458 0.318445C962.16 0.316002 959.732 0.270243 957.26 0.22364C952.008 0.124639 946.554 0.0218336 941.708 0.322404C923.535 1.44935 903.56 1.98608 884.983 1.24943C883.015 1.17136 881.254 1.00443 879.554 0.843331C875.881 0.495185 872.495 0.174271 867.925 0.836323C859.815 2.01117 844.827 1.56221 835.989 1.16911C833.78 1.07086 831.327 1.31938 828.57 1.59867C826.346 1.82406 823.923 2.06949 821.271 2.16892C811.388 2.53947 799.52 1.63794 790.087 0.753673C785.708 0.343248 782.253 0.715011 778.532 1.11525C777.181 1.26068 775.794 1.40991 774.315 1.52669C768.866 1.9571 762.878 2.13609 756.98 2.31242C753.642 2.41222 750.332 2.51116 747.164 2.65435C739.158 3.01625 731.584 3.11728 723.433 3.10861C722.548 3.10767 721.51 3.13631 720.405 3.16679C717.169 3.25602 713.364 3.36097 711.168 2.7853C703.79 0.850636 696.937 0.541742 688.037 0.532282C684.848 0.528893 681.69 0.600526 678.562 0.671486C671.331 0.835532 664.258 3.44929 657.327 2.67093C656.841 2.61636 656.356 2.56126 655.871 2.50619L655.862 2.50525C651.064 1.96046 646.287 1.41806 641.172 1.41262C633.42 1.40438 626.108 1.90551 618.806 2.40607C611.519 2.90548 604.242 3.40432 596.542 3.39614L567.292 3.36507C563.112 3.36063 558.834 3.63616 554.525 3.91367C548.046 4.331 541.497 4.75281 535.106 4.23354C520.987 3.08631 507.728 2.79395 492.709 2.77799C489.292 2.77436 485.867 2.7558 482.439 2.73723C474.941 2.69659 467.431 1.02036 459.965 1.13585C457.581 1.17273 454.797 1.38493 451.907 1.60522C446.457 2.02066 440.629 2.46486 436.394 1.81604C433.087 1.30932 430.642 1.11208 427.059 1.07271C424.423 1.04376 422.406 0.796106 420.434 0.553961C417.778 0.227818 415.203 -0.0883362 411.306 0.153329C408.192 0.346471 405.158 0.683597 402.135 1.01948C398.757 1.39473 395.394 1.76846 391.948 1.93806C390.952 1.98711 389.609 1.98695 388.291 1.98679C386.713 1.9866 385.171 1.98642 384.309 2.07094C370.999 3.37553 353.586 2.05548 339.903 1.66079L339.778 1.65718C338.395 1.61726 338.486 1.47704 338.615 1.28106C338.764 1.05317 338.963 0.749887 336.948 0.441236C334.817 0.114753 332.428 0.129761 330.109 0.144322C329.596 0.147547 329.086 0.150751 328.583 0.150216C327.075 0.148614 325.436 0.114156 323.747 0.0786497C319.69 -0.00662526 315.346 -0.0979469 311.844 0.245326C309.157 0.508692 306.443 0.720362 303.728 0.932228C300.951 1.14886 298.172 1.36569 295.415 1.6382C292.194 1.95658 284.23 2.06743 281.142 2.10729C281.339 1.95532 274.621 1.10841 272.752 1.10642C272.029 1.10565 271.293 1.11162 270.552 1.11763C268.785 1.13196 266.99 1.14652 265.277 1.07034C261.467 0.900873 257.514 3.35784 253.597 3.36146C249.213 3.36552 244.873 3.36954 240.824 3.13085C235.189 2.79856 228.878 2.88328 222.99 2.96231C222.1 2.97426 221.218 2.9861 220.35 2.99633C219.913 3.00149 218.728 3.06288 217.173 3.14347C212.025 3.41021 202.818 3.88727 203.204 3.23186C204.028 1.82877 182.18 2.66285 176.002 2.89871C175.407 2.9214 174.957 2.93858 174.687 2.94767C171.929 3.04047 169.386 3.23268 166.859 3.4237C163.38 3.68674 159.93 3.12975 155.988 3.12556L148.432 4.75303C147.971 4.75254 147.217 4.77061 146.307 4.79244C142.975 4.87231 137.542 5.00258 136.654 4.45845C135.09 3.5004 130.869 3.21115 127.893 3.20799C125.42 3.20536 121.366 3.12714 117.278 3.04826C108.829 2.88525 100.234 2.71941 105.142 3.21203C110.628 3.76262 96.9915 3.71186 88.7508 3.68119C87.356 3.676 86.1157 3.67138 85.1489 3.67035C79.7377 3.6646 72.9112 3.99022 66.8029 4.28159C60.5891 4.57799 55.1185 4.83894 52.6367 4.67954C51.0337 4.57658 49.142 4.40536 47.1042 4.2209C40.8954 3.65891 33.3297 2.97409 28.4344 3.72289Z" fill="#4522A9"></path></svg> 